<svg width="287" height="304" viewBox="0 0 287 304" fill="none" xmlns="http://www.w3.org/2000/svg">
    <g mask="url(#mask0_225_1791)">
        <path d="M277.873 130.748H193.535V56.7908C193.535 54.096 191.339 52 188.644 52H98.0189C95.3241 52 93.2282 54.1958 93.2282 56.7908V88.9289H8.79077C6.09596 88.9289 4 91.1247 4 93.7197V241.435C4 244.13 6.19577 246.226 8.79077 246.226H98.0189H188.545H188.644H277.873C280.567 246.226 282.663 244.03 282.663 241.435V135.639C282.663 132.944 280.468 130.748 277.873 130.748ZM225.174 196.522H241.343V238.641H225.174V196.522ZM272.982 236.644H247.032V193.527C247.032 191.931 245.734 190.633 244.138 190.633H222.18C220.583 190.633 219.285 191.931 219.285 193.527V236.644H193.335V140.43H272.882V236.644H272.982ZM13.5815 98.6102H93.1284V236.644H67.1783V193.527C67.1783 191.931 65.8808 190.633 64.2839 190.633H42.3262C40.7293 190.633 39.4318 191.931 39.4318 193.527V236.644H13.4817V98.6102H13.5815ZM45.3204 196.522H61.4893V238.641H45.3204V196.522ZM183.754 135.639V236.644H155.907V193.527C155.907 191.931 154.61 190.633 153.013 190.633H131.055C129.458 190.633 128.161 191.931 128.161 193.527V236.644H102.81V93.8195V61.6814H183.754V135.04C183.754 135.24 183.754 135.439 183.754 135.639ZM133.95 238.641V196.522H150.119V238.641H133.95Z" fill="#272525"/>
        <path d="M138.043 80.046H116.385C114.788 80.046 113.491 81.3435 113.491 82.9404V104.599C113.491 106.196 114.788 107.493 116.385 107.493H138.043C139.64 107.493 140.938 106.196 140.938 104.599V82.9404C140.938 81.3435 139.64 80.046 138.043 80.046ZM135.149 101.704H119.28V85.8349H135.149V101.704Z" fill="#272525"/>
        <path d="M170.978 80.046H149.32C147.723 80.046 146.425 81.3435 146.425 82.9404V104.599C146.425 106.196 147.723 107.493 149.32 107.493H170.978C172.575 107.493 173.872 106.196 173.872 104.599V82.9404C173.872 81.3435 172.575 80.046 170.978 80.046ZM167.984 101.704H152.114V85.8349H167.984V101.704Z" fill="#272525"/>
        <path d="M138.043 115.578H116.385C114.788 115.578 113.491 116.875 113.491 118.472V140.13C113.491 141.727 114.788 143.025 116.385 143.025H138.043C139.64 143.025 140.938 141.727 140.938 140.13V118.472C140.938 116.875 139.64 115.578 138.043 115.578ZM135.149 137.236H119.28V121.366H135.149V137.236Z" fill="#272525"/>
        <path d="M170.978 115.578H149.32C147.723 115.578 146.425 116.875 146.425 118.472V140.13C146.425 141.727 147.723 143.025 149.32 143.025H170.978C172.575 143.025 173.872 141.727 173.872 140.13V118.472C173.872 116.875 172.575 115.578 170.978 115.578ZM167.984 137.236H152.114V121.366H167.984V137.236Z" fill="#272525"/>
        <path d="M138.043 151.009H116.385C114.788 151.009 113.491 152.307 113.491 153.904V175.562C113.491 177.159 114.788 178.456 116.385 178.456H138.043C139.64 178.456 140.938 177.159 140.938 175.562V153.904C140.938 152.307 139.64 151.009 138.043 151.009ZM135.149 172.668H119.28V156.798H135.149V172.668Z" fill="#272525"/>
        <path d="M170.978 151.009H149.32C147.723 151.009 146.425 152.307 146.425 153.904V175.562C146.425 177.159 147.723 178.456 149.32 178.456H170.978C172.575 178.456 173.872 177.159 173.872 175.562V153.904C173.872 152.307 172.575 151.009 170.978 151.009ZM167.984 172.668H152.114V156.798H167.984V172.668Z" fill="#272525"/>
        <path d="M26.0558 143.025H47.7141C49.311 143.025 50.6085 141.727 50.6085 140.13V118.472C50.6085 116.875 49.311 115.578 47.7141 115.578H26.0558C24.4589 115.578 23.1614 116.875 23.1614 118.472V140.13C23.1614 141.727 24.4589 143.025 26.0558 143.025ZM28.9502 121.366H44.8197V137.236H28.9502V121.366Z" fill="#272525"/>
        <path d="M58.9955 143.025H80.6538C82.2507 143.025 83.5482 141.727 83.5482 140.13V118.472C83.5482 116.875 82.2507 115.578 80.6538 115.578H58.9955C57.3986 115.578 56.1011 116.875 56.1011 118.472V140.13C56.1011 141.727 57.3986 143.025 58.9955 143.025ZM61.8899 121.366H77.7594V137.236H61.8899V121.366Z" fill="#272525"/>
        <path d="M47.7141 178.456C49.311 178.456 50.6085 177.159 50.6085 175.562V153.904C50.6085 152.307 49.311 151.009 47.7141 151.009H26.0558C24.4589 151.009 23.1614 152.307 23.1614 153.904V175.562C23.1614 177.159 24.4589 178.456 26.0558 178.456H47.7141ZM28.9502 156.798H44.8197V172.668H28.9502V156.798Z" fill="#272525"/>
        <path d="M58.9955 178.456H80.6538C82.2507 178.456 83.5482 177.159 83.5482 175.562V153.904C83.5482 152.307 82.2507 151.009 80.6538 151.009H58.9955C57.3986 151.009 56.1011 152.307 56.1011 153.904V175.562C56.1011 177.159 57.3986 178.456 58.9955 178.456ZM61.8899 156.798H77.7594V172.668H61.8899V156.798Z" fill="#272525"/>
        <path d="M205.91 178.456H227.568C229.165 178.456 230.463 177.159 230.463 175.562V153.904C230.463 152.307 229.165 151.009 227.568 151.009H205.91C204.313 151.009 203.016 152.307 203.016 153.904V175.562C203.016 177.159 204.313 178.456 205.91 178.456ZM208.804 156.798H224.674V172.668H208.804V156.798Z" fill="#272525"/>
        <path d="M238.845 178.456H260.503C262.1 178.456 263.398 177.159 263.398 175.562V153.904C263.398 152.307 262.1 151.009 260.503 151.009H238.845C237.248 151.009 235.951 152.307 235.951 153.904V175.562C235.851 177.159 237.248 178.456 238.845 178.456ZM241.74 156.798H257.609V172.668H241.74V156.798Z" fill="#272525"/>
    </g>
</svg>
