<svg width="295" height="312" viewBox="0 0 295 312" fill="none" xmlns="http://www.w3.org/2000/svg">
    <g filter="url(#filter0_d_225_1791)">
        <rect x="4.31738" y="0.0927734" width="286.287" height="303.289" rx="5" fill="white"/>
    </g>
    <mask id="mask0_225_1791" style="mask-type:alpha" maskUnits="userSpaceOnUse" x="4" y="0" width="287" height="304">
        <rect x="4.31738" y="0.0927734" width="286.287" height="303.289" rx="5" fill="#D9D9D9"/>
    </mask>
    <g mask="url(#mask0_225_1791)">
        <path d="M46.8481 159.358C41.8139 160.477 37.9916 164.952 37.9916 170.266C37.9916 172.69 38.8306 175.114 40.229 176.978L35.5677 204.573C35.3812 205.785 35.6609 206.997 36.5 207.836C37.2458 208.768 38.3645 209.235 39.5764 209.235H58.5946C59.8066 209.235 60.9253 208.768 61.6711 207.836C62.4169 206.997 62.7898 205.785 62.6034 204.573L58.5946 175.86C59.6201 174.181 60.1795 172.224 60.1795 170.173C60.1795 166.164 58.0353 162.621 54.8656 160.664V145.747L79.9435 156.655V218.93C79.9435 226.575 86.1897 232.821 93.8343 232.821H208.316C215.961 232.821 222.207 226.575 222.207 218.93V152.833L281.965 126.916C283.55 126.263 284.482 124.678 284.389 123C284.296 121.322 283.271 119.83 281.686 119.364L145.948 73.0307C145.016 72.751 144.083 72.751 143.244 73.0307C96.6311 90.6505 20.1853 118.805 13.1001 119.178C11.1423 119.178 9.5575 120.576 9.18459 122.441C8.81169 124.305 9.74395 126.263 11.5153 127.009L46.8481 142.298V159.358ZM44.4242 201.124L48.6194 176.326C48.8991 174.927 48.3397 173.436 47.221 172.503C46.5684 171.944 46.1023 171.105 46.1023 170.173C46.1023 168.495 47.5007 167.189 49.0855 167.189C50.7636 167.189 52.0688 168.588 52.0688 170.173C52.0688 171.105 51.6959 171.758 51.323 172.13C50.5772 172.97 50.2043 174.181 50.3907 175.393L53.9333 201.124H44.4242ZM214.283 219.023C214.283 222.193 211.673 224.803 208.503 224.803H94.0207C90.851 224.803 88.2407 222.193 88.2407 219.023V160.197L145.295 184.996C145.855 185.182 146.321 185.369 146.88 185.369C147.439 185.369 147.999 185.275 148.465 184.996L214.283 156.468V219.023ZM25.4992 124.212C54.8656 115.076 125.438 88.5063 144.736 81.1414L269.38 123.746L146.88 176.885L65.9595 141.832L134.295 132.789C137.278 134.653 141.753 135.772 146.88 135.772C156.296 135.772 163.381 132.043 163.381 127.009C163.381 122.068 156.296 118.246 146.88 118.246C138.769 118.246 132.337 121.042 130.752 124.958L51.5094 135.399L25.4992 124.212ZM134.388 127.009C134.388 125.144 139.236 122.348 146.88 122.348C154.525 122.348 159.372 125.144 159.372 127.009C159.372 128.873 154.525 131.67 146.88 131.67C139.236 131.67 134.388 128.873 134.388 127.009Z" fill="#272525"/>
   </g>
</svg>

