<svg width="144" height="80" viewBox="0 0 144 80" fill="none" xmlns="http://www.w3.org/2000/svg">
    <rect x="94" y="30" width="50" height="50" rx="5" fill="#646464"/>
    <rect x="1.5" y="1.5" width="47" height="47" rx="3.5" fill="#C1C1C1" stroke="white" stroke-width="3"/>
    <rect x="32.5" y="31.5" width="47" height="47" rx="3.5" fill="#C7C7C7" stroke="white" stroke-width="3"/>
    <rect x="61.5" y="1.5" width="47" height="47" rx="3.5" fill="#C0C0C0" stroke="white" stroke-width="3"/>
    <path d="M109.984 58.904V51.896H111.328V58.904H109.984ZM107.072 56.04V54.776H114.24V56.04H107.072ZM117.687 61V50.44L118.375 51.192H115.159V49.8H119.271V61H117.687ZM126.297 61.128C125.422 61.128 124.638 60.904 123.945 60.456C123.262 60.008 122.718 59.3573 122.313 58.504C121.918 57.6507 121.721 56.616 121.721 55.4C121.721 54.184 121.918 53.1493 122.313 52.296C122.718 51.4427 123.262 50.792 123.945 50.344C124.638 49.896 125.422 49.672 126.297 49.672C127.161 49.672 127.94 49.896 128.633 50.344C129.326 50.792 129.87 51.4427 130.265 52.296C130.66 53.1493 130.857 54.184 130.857 55.4C130.857 56.616 130.66 57.6507 130.265 58.504C129.87 59.3573 129.326 60.008 128.633 60.456C127.94 60.904 127.161 61.128 126.297 61.128ZM126.297 59.704C126.884 59.704 127.396 59.544 127.833 59.224C128.281 58.904 128.628 58.424 128.873 57.784C129.129 57.144 129.257 56.3493 129.257 55.4C129.257 54.4507 129.129 53.656 128.873 53.016C128.628 52.376 128.281 51.896 127.833 51.576C127.396 51.256 126.884 51.096 126.297 51.096C125.71 51.096 125.193 51.256 124.745 51.576C124.297 51.896 123.945 52.376 123.689 53.016C123.444 53.656 123.321 54.4507 123.321 55.4C123.321 56.3493 123.444 57.144 123.689 57.784C123.945 58.424 124.297 58.904 124.745 59.224C125.193 59.544 125.71 59.704 126.297 59.704Z" fill="white"/>
</svg>
