<svg width="28" height="29" viewBox="0 0 28 29" fill="none" xmlns="http://www.w3.org/2000/svg">
<g id="Vector">
<path id="Vector_2" d="M14.4998 11.9545V17.3763H22.0343C21.7034 19.1199 20.7106 20.5963 19.2215 21.5891L23.7651 25.1145C26.4124 22.671 27.9397 19.0819 27.9397 14.8182C27.9397 13.8255 27.8506 12.8709 27.6851 11.9546L14.4998 11.9545Z" fill="#4285F4"/>
<path id="Vector_3" d="M6.6538 17.1647L5.62904 17.9491L2.00171 20.7745C4.30534 25.3436 9.02681 28.5 14.4995 28.5C18.2794 28.5 21.4484 27.2527 23.7649 25.1146L19.2212 21.5891C17.974 22.4291 16.383 22.9382 14.4995 22.9382C10.8595 22.9382 7.76687 20.4819 6.65952 17.1728L6.6538 17.1647Z" fill="#34A853"/>
<path id="Vector_4" d="M2.00171 8.22546C1.04722 10.109 0.5 12.2345 0.5 14.4999C0.5 16.7653 1.04722 18.8908 2.00171 20.7744C2.00171 20.787 6.65997 17.1598 6.65997 17.1598C6.37997 16.3198 6.21447 15.429 6.21447 14.4998C6.21447 13.5706 6.37997 12.6797 6.65997 11.8397L2.00171 8.22546Z" fill="#FBBC05"/>
<path id="Vector_5" d="M14.4998 6.07454C16.5616 6.07454 18.3943 6.78725 19.858 8.16181L23.867 4.15277C21.4361 1.88736 18.2798 0.5 14.4998 0.5C9.02709 0.5 4.30534 3.64363 2.00171 8.22546L6.65983 11.84C7.76703 8.53089 10.8598 6.07454 14.4998 6.07454Z" fill="#EA4335"/>
</g>
</svg>
