<svg width="29" height="29" viewBox="0 0 29 29" fill="none" xmlns="http://www.w3.org/2000/svg">
    <rect x="1" y="1" width="26" height="26" transform="translate(0.5 0.5)" fill="white"/>
    <path d="M26.4331 0.5H2.56694C2.01876 0.5 1.49302 0.717767 1.10539 1.10539C0.717767 1.49302 0.5 2.01876 0.5 2.56694V26.4331C0.5 26.9812 0.717767 27.507 1.10539 27.8946C1.49302 28.2822 2.01876 28.5 2.56694 28.5H26.4331C26.9812 28.5 27.507 28.2822 27.8946 27.8946C28.2822 27.507 28.5 26.9812 28.5 26.4331V2.56694C28.5 2.01876 28.2822 1.49302 27.8946 1.10539C27.507 0.717767 26.9812 0.5 26.4331 0.5ZM8.84556 24.3525H4.63583V10.9806H8.84556V24.3525ZM6.73778 9.1275C6.26026 9.12481 5.79423 8.98073 5.39852 8.71344C5.00281 8.44614 4.69515 8.06762 4.51436 7.62564C4.33357 7.18365 4.28776 6.69802 4.3827 6.23003C4.47765 5.76204 4.7091 5.33266 5.04785 4.99608C5.38659 4.6595 5.81745 4.43081 6.28604 4.33887C6.75464 4.24693 7.23996 4.29586 7.68078 4.47948C8.12159 4.66311 8.49813 4.97319 8.76288 5.37061C9.02762 5.76803 9.16871 6.23497 9.16833 6.7125C9.17284 7.03221 9.11293 7.34955 8.99218 7.64561C8.87143 7.94166 8.69231 8.21038 8.4655 8.43574C8.23869 8.66111 7.96882 8.8385 7.67199 8.95734C7.37517 9.07619 7.05745 9.13406 6.73778 9.1275ZM24.3622 24.3642H20.1544V17.0589C20.1544 14.9044 19.2386 14.2394 18.0564 14.2394C16.8081 14.2394 15.5831 15.1806 15.5831 17.1133V24.3642H11.3733V10.9903H15.4217V12.8433H15.4761C15.8825 12.0208 17.3058 10.615 19.4778 10.615C21.8267 10.615 24.3642 12.0092 24.3642 16.0925L24.3622 24.3642Z" fill="#0A66C2"/>

</svg>
