<svg width="139" height="42" viewBox="0 0 139 42" fill="none" xmlns="http://www.w3.org/2000/svg">
    <g clip-path="url(#clip0_298_2799)">
        <path d="M65.225 23.5294C65.225 26.1896 64.5801 28.6079 63.2853 30.7844C61.9905 32.9608 60.1818 34.5831 57.8643 35.6462L60.3682 38.9109L55.2192 41.5207L51.7732 36.9511H51.6623C47.5512 36.9511 44.2613 35.6512 41.7976 33.0515C39.3289 30.4518 38.0996 27.2778 38.0996 23.5294C38.0996 19.781 39.334 16.607 41.7976 14.0073C44.2663 11.4076 47.5512 10.1078 51.6623 10.1078C55.7734 10.1078 59.0634 11.4076 61.527 14.0073C63.9957 16.607 65.225 19.781 65.225 23.5294ZM51.6573 31.6912C53.9799 31.6912 55.7986 30.9103 57.1186 29.3535C58.4386 27.7917 59.0936 25.852 59.0936 23.5294C59.0936 21.2068 58.4336 19.2671 57.1186 17.7053C55.7986 16.1435 53.9799 15.3676 51.6573 15.3676C49.3347 15.3676 47.4806 16.1485 46.1607 17.7053C44.8407 19.2671 44.1958 21.2068 44.221 23.5294C44.1958 25.852 44.8457 27.7917 46.1607 29.3535C47.4806 30.9154 49.3095 31.6912 51.6573 31.6912Z" fill="white"/>
        <path d="M68.4546 36.2256V18.7432H74.0066V36.2256H68.4546Z" fill="white"/>
        <path d="M91.0556 10.8333H96.6076V36.2255H91.0959V33.7568C90.6122 34.6284 89.8666 35.3338 88.864 35.8779C87.8614 36.422 86.753 36.6941 85.5439 36.6941C83.0046 36.6941 80.9994 35.8376 79.5233 34.1196C78.0471 32.4016 77.3115 30.1898 77.3115 27.4793C77.3115 24.7688 78.0723 22.6175 79.5988 20.8793C81.1204 19.1361 83.1306 18.2696 85.6194 18.2696C86.8538 18.2696 87.9521 18.5366 88.9194 19.0656C89.8867 19.5996 90.6122 20.3251 91.0959 21.2421V19.7558H91.0606V10.8333H91.0556ZM87.1359 32.0892C88.466 32.0892 89.4938 31.6559 90.2193 30.7843C90.9448 29.9127 91.3075 28.8144 91.3075 27.4843C91.3075 26.1543 90.9448 25.0912 90.2193 24.2196C89.4938 23.348 88.466 22.9147 87.1359 22.9147C85.8764 22.9147 84.8687 23.3379 84.108 24.1844C83.3472 25.0308 82.9643 26.1291 82.9643 27.4843C82.9643 28.8396 83.3472 29.943 84.108 30.8045C84.8687 31.661 85.8814 32.0942 87.1359 32.0942V32.0892Z" fill="white"/>
        <path d="M113.687 10.8333H119.239V36.2255H113.727V33.7568C113.244 34.6284 112.498 35.3338 111.495 35.8779C110.493 36.422 109.384 36.6941 108.175 36.6941C105.636 36.6941 103.626 35.8376 102.155 34.1196C100.678 32.4016 99.9429 30.1898 99.9429 27.4793C99.9429 24.7688 100.704 22.6175 102.23 20.8793C103.752 19.1361 105.762 18.2696 108.251 18.2696C109.485 18.2696 110.583 18.5366 111.551 19.0656C112.518 19.5996 113.244 20.3251 113.727 21.2421V19.7558H113.692V10.8333H113.687ZM109.767 32.0892C111.097 32.0892 112.125 31.6559 112.851 30.7843C113.576 29.9127 113.939 28.8144 113.939 27.4843C113.939 26.1543 113.576 25.0912 112.851 24.2196C112.125 23.348 111.097 22.9147 109.767 22.9147C108.508 22.9147 107.5 23.3379 106.739 24.1844C105.979 25.0308 105.596 26.1291 105.596 27.4843C105.596 28.8396 105.979 29.943 106.739 30.8045C107.5 31.661 108.513 32.0942 109.767 32.0942V32.0892Z" fill="white"/>
        <path d="M130.847 36.7696C128.333 36.7696 126.323 36.2255 124.826 35.1373C123.325 34.049 122.579 32.6585 122.579 30.9657H128.091C128.091 31.5703 128.358 32.064 128.887 32.4519C129.421 32.8399 130.106 33.0313 130.953 33.0313C131.557 33.0313 132.046 32.8852 132.424 32.5981C132.797 32.3058 132.988 31.9078 132.988 31.399C132.988 30.6029 132.565 30.1042 131.719 29.9127L127.436 28.8245C126.01 28.4617 124.922 27.8471 124.171 26.9755C123.421 26.1039 123.048 25.0408 123.048 23.7813C123.048 22.1389 123.723 20.7987 125.078 19.7709C126.434 18.7431 128.247 18.2292 130.519 18.2292C133.034 18.2292 134.963 18.7129 136.303 19.6802C137.643 20.6476 138.319 21.9776 138.319 23.6705H132.842C132.842 23.0659 132.63 22.5973 132.207 22.2547C131.784 21.9172 131.2 21.7459 130.449 21.7459C129.844 21.7459 129.361 21.8769 128.998 22.1439C128.635 22.4109 128.454 22.7585 128.454 23.1969C128.454 23.9727 128.948 24.4917 129.94 24.7587L134.076 25.8822C135.457 26.2449 136.535 26.8445 137.321 27.6758C138.107 28.5121 138.5 29.5298 138.5 30.739C138.5 32.5527 137.815 34.0087 136.449 35.1121C135.084 36.2104 133.215 36.7646 130.847 36.7646V36.7696Z" fill="white"/>
        <path d="M71.2558 10.1532C71.291 10.1985 71.3314 10.2338 71.3817 10.264C71.6084 10.4051 71.9007 10.3043 72.1475 10.2136C72.5808 10.0574 73.0342 9.95164 73.4927 9.90126C73.6187 9.88615 73.7547 9.88111 73.8605 9.9466C74.062 10.0776 74.0268 10.39 73.9058 10.5965C73.7245 10.9089 73.4272 11.1356 73.2207 11.4278C72.7975 12.0274 72.8176 12.904 73.271 13.4783C73.3869 13.6245 73.5229 13.7504 73.6187 13.9116C73.7144 14.0729 73.7547 14.2845 73.659 14.4406C73.3063 15.0301 72.5455 14.4759 72.1375 14.3197C71.8201 14.1988 71.4573 14.1283 71.1349 14.2492C70.5404 14.4658 70.3288 15.1964 69.8753 15.6347C69.7343 15.7707 69.5428 15.8815 69.3514 15.8312C69.1599 15.7757 69.0541 15.5641 69.039 15.3677C69.0239 15.1712 69.0843 14.9747 69.1146 14.7782C69.1901 14.2895 69.0743 13.7806 68.8022 13.3675C68.5301 12.9544 68.1019 12.6521 67.6233 12.5312C67.4066 12.4758 67.1497 12.4405 67.0338 12.249C66.923 12.0727 66.9935 11.8258 67.1396 11.6797C67.2857 11.5336 67.4973 11.4681 67.7039 11.4329C67.9104 11.3976 68.122 11.3825 68.3185 11.317C68.6662 11.1961 68.9433 10.9139 69.1146 10.5814C69.2859 10.2489 69.3514 9.88111 69.3766 9.51332C69.3917 9.31684 69.3917 9.11531 69.4672 8.9289C69.5428 8.74249 69.7091 8.5863 69.9106 8.5863C70.1373 8.5863 70.3036 8.79791 70.4396 8.98432C70.6814 9.32691 70.9233 9.67454 71.1651 10.0171C71.1953 10.0574 71.2255 10.1028 71.2558 10.1381V10.1532Z" fill="white"/>
        <path d="M11.1507 34.2305C11.5084 34.2859 11.8712 34.4018 12.2289 34.3867C14.8487 34.2809 17.0856 35.218 19.2823 36.2961C20.8189 37.0518 22.3556 37.8025 23.9426 38.4676C26.0082 39.3341 28.7137 39.319 30.6786 37.334C31.1018 36.9057 31.5401 36.4825 31.9935 36.0744C32.1447 35.9384 32.3764 35.8679 32.5679 35.7671L32.7946 35.8981C32.6183 36.2911 32.5477 36.7596 32.2555 37.072C30.4519 38.9915 28.5323 40.7297 25.5195 41.2537C23.3733 41.6265 21.353 41.3645 19.504 40.5483C17.3376 39.5911 15.3072 38.392 13.2466 37.2534C11.9165 36.5178 10.662 35.6664 8.98934 35.6109C7.85575 35.5757 6.49041 35.7822 6.15286 37.1073C5.93622 37.9537 5.75988 38.8152 5.61378 39.6717C5.52309 40.2057 5.45759 40.8204 4.7724 40.9111C4.12248 40.9967 3.32142 40.9766 2.7773 40.7095C2.18783 40.4224 2.06692 39.7624 2.33898 39.1225C3.1602 37.1576 4.82782 35.8326 6.90858 34.9862C10.395 33.5705 13.9973 32.3664 17.5038 30.9859C19.5745 30.1697 21.5545 29.1823 23.5647 28.2653C23.741 28.1847 23.872 28.0285 23.9476 27.822C23.076 28.2754 22.2195 28.754 21.3278 29.1823C19.7055 29.9632 17.9018 30.069 16.1133 30.0387C9.54857 29.9229 4.02676 26.2652 1.88051 20.6779C-1.07185 12.9745 3.65897 4.50539 12.4707 1.77471C18.6626 -0.144827 25.9074 1.59334 29.9027 6.0521C31.8222 8.19331 32.9105 10.662 33.374 13.3524C33.9786 16.8539 32.7291 19.9675 30.8297 22.9501C28.9051 25.9729 25.9125 28.0638 22.4664 29.5954C19.0707 31.1068 15.5087 32.3412 12.0223 33.6964C11.72 33.8123 11.4228 33.9383 11.1205 34.0592C11.1306 34.1146 11.1406 34.17 11.1507 34.2254V34.2305Z" fill="white" stroke="white" stroke-width="1.00763" stroke-miterlimit="10"/>
        <path d="M9.74512 18.1839C10.7074 20.184 13.1862 22.5368 17.3175 22.5368C23.1214 22.5368 24.8898 18.0126 24.8898 18.0126" stroke="#4353FF" stroke-width="1.51145" stroke-miterlimit="10" stroke-linecap="round"/>
        <path d="M22.1439 13.4884C22.29 14.0476 22.154 14.5665 21.8416 14.6471C21.5293 14.7278 21.1615 14.3398 21.0204 13.7806C20.8743 13.2213 21.0103 12.7024 21.3227 12.6218C21.6351 12.5412 22.0028 12.9291 22.1439 13.4884Z" fill="white" stroke="#4353FF" stroke-width="1.51145" stroke-miterlimit="10"/>
        <path d="M13.4731 13.7101C13.3522 14.2441 12.9995 14.622 12.6871 14.5514C12.3748 14.4809 12.2186 13.9922 12.3395 13.4531C12.4604 12.9191 12.8131 12.5412 13.1255 12.6117C13.4378 12.6823 13.594 13.171 13.4731 13.7101Z" fill="white" stroke="#4353FF" stroke-width="1.51145" stroke-miterlimit="10"/>
    </g>
    <defs>
        <clipPath id="clip0_298_2799">
            <rect width="138" height="41.4287" fill="white" transform="translate(0.5 0.5)"/>
        </clipPath>
    </defs>
</svg>
