<svg width="295" height="312" viewBox="0 0 295 312" fill="none" xmlns="http://www.w3.org/2000/svg">
    <g filter="url(#filter0_d_225_1791)">
        <rect x="4.31738" y="0.0927734" width="286.287" height="303.289" rx="5" fill="white"/>
    </g>
    <mask id="mask0_225_1791" style="mask-type:alpha" maskUnits="userSpaceOnUse" x="4" y="0" width="287" height="304">
        <rect x="4.31738" y="0.0927734" width="286.287" height="303.289" rx="5" fill="#D9D9D9"/>
    </mask>
    <g mask="url(#mask0_225_1791)">
        <path d="M232.767 199.206C237.059 187.328 236.959 174.853 236.36 162.377C235.462 145.808 234.065 129.141 232.568 112.672C231.57 102.093 223.884 94.9065 214.403 94.9065C210.909 94.9065 207.716 95.9046 204.921 97.7011C208.215 86.0236 203.823 78.6378 188.053 73.0486C187.954 73.0486 187.954 72.9488 187.954 72.849C188.253 64.3653 186.257 59.1753 178.671 54.8836C170.986 50.492 163.501 49.993 156.714 58.6763C156.714 58.7761 154.817 60.9718 154.817 60.9718C153.819 56.1811 149.827 53.1868 146.633 51.7895C141.244 49.3941 136.353 49.494 131.961 51.6897C130.564 51.9891 129.167 52.4882 127.77 53.1868C124.675 54.684 120.783 57.8778 119.984 62.6686C119.984 62.7684 118.088 60.5726 117.988 60.4728C110.802 51.9892 103.416 52.7876 95.9308 57.4786C88.6449 62.1695 86.8483 67.4594 87.4472 75.8432C87.4472 75.943 87.4472 76.0428 87.3473 76.0428C72.975 81.8317 68.3839 88.6186 70.6794 98.799C67.9846 97.4017 64.9904 96.703 61.7966 96.8028C52.3148 97.2021 44.929 104.688 44.43 115.267C43.5317 131.835 42.8331 148.503 42.6335 165.171C42.4338 177.547 42.9329 190.123 47.6238 201.801L31.2554 229.048L110.203 276.457L128.169 246.515C132.261 245.417 136.153 243.82 140.046 241.624C144.637 244.119 149.328 246.015 154.019 247.113L173.082 276.357L250.134 225.754L232.767 199.206ZM179.57 89.5169C183.263 83.3288 187.155 81.7319 191.946 84.1272C197.036 86.6224 198.433 90.7146 194.94 97.1023C191.946 102.492 188.952 107.782 185.858 113.171C182.265 107.782 178.771 102.292 175.178 96.9026C176.675 94.5073 178.073 92.0121 179.57 89.5169ZM195.04 118.461C194.84 120.557 194.741 122.753 194.541 125.348C194.541 125.547 194.341 125.547 194.241 125.448C193.144 123.951 192.345 122.853 191.646 121.855C192.645 120.557 193.742 119.26 195.04 118.461ZM161.005 67.9584C164.299 62.469 168.291 60.6724 172.683 62.469C178.572 64.8644 180.069 70.3538 176.376 76.5419C174.08 80.4344 171.785 84.2271 169.489 88.1196C165.896 82.6301 162.403 77.2405 158.81 71.8509C159.409 70.4536 160.207 69.2559 161.005 67.9584ZM129.766 235.835C127.969 236.434 126.073 237.033 124.176 237.432L119.086 245.916L117.889 247.912L106.011 267.674L40.7371 228.549L51.716 210.184L53.2131 207.589L57.2054 201.002C56.5067 199.505 55.9079 197.908 55.309 196.311C54.7102 194.614 54.2112 192.818 53.8119 191.021C53.0135 187.528 52.6142 183.835 52.6142 180.043C52.4146 158.684 53.0135 137.325 53.5125 115.866C53.6123 110.077 57.405 106.185 61.8964 105.985C65.8887 105.786 69.1823 107.882 70.7793 111.874C69.5816 112.473 68.4837 113.371 67.0864 114.868C60.4991 122.354 59.7006 133.332 65.0902 141.816C80.5604 166.469 96.4299 190.922 112.499 215.175C115.593 219.866 119.186 224.357 123.079 228.449C125.574 230.945 128.069 233.24 130.664 235.336C130.464 235.635 130.165 235.735 129.766 235.835ZM164.299 248.211L163.002 246.215L157.612 237.931C155.616 237.632 153.72 237.133 151.923 236.534C149.727 235.835 147.531 235.037 145.535 234.039C136.353 229.547 128.867 222.261 122.679 213.279C114.196 201.102 106.311 188.526 98.2264 176.05C89.6429 163.075 81.0595 150 72.5758 136.926C71.1785 134.63 68.7831 131.436 69.2821 127.444C69.6814 124.649 71.1785 122.952 73.2744 121.455C75.1708 120.158 79.3627 120.457 81.6583 121.555C84.2533 122.853 86.1497 125.747 87.8464 128.242C91.8387 134.231 95.7312 140.219 99.7235 146.208C101.62 149.102 103.616 152.096 105.512 154.891C107.608 157.985 111.601 166.568 116.292 163.175C120.683 160.081 114.894 153.194 113.098 150.4C111.201 147.505 109.205 144.511 107.409 141.617C98.6256 127.843 89.7427 114.269 81.2591 100.296C77.5662 94.2078 78.8637 90.1157 83.8541 87.4209C88.545 84.8259 92.4375 86.323 96.4299 92.3115C106.71 107.981 116.89 123.551 127.171 139.221C128.568 141.417 129.466 143.213 132.161 144.112C134.157 144.81 136.153 144.411 136.852 142.415C138.15 138.922 137.052 137.125 135.255 134.331C123.178 115.966 111.201 97.5015 99.1247 79.1369C95.2322 73.0486 96.4299 67.5592 102.219 64.8643C106.51 62.8682 110.603 64.5649 114.096 69.9545C126.372 88.6186 138.649 107.382 150.825 126.047C152.821 129.141 155.217 131.636 158.81 129.141C162.203 126.745 160.307 123.651 158.51 120.956C149.029 106.584 139.647 92.1119 130.265 77.7396C128.967 75.8432 127.77 73.8471 127.071 71.6513C125.574 66.7607 128.967 61.6705 133.958 60.7722C139.148 59.874 141.643 62.968 144.038 66.5611C160.007 91.1138 176.076 115.667 192.345 140.119C193.842 142.415 196.936 145.01 199.332 144.91C203.623 144.81 203.224 140.319 203.424 137.125C204.122 129.34 204.422 121.455 205.22 113.571C205.819 107.482 209.612 103.989 214.702 104.089C219.293 104.189 223.086 107.782 223.485 113.67C224.882 135.029 226.28 156.388 226.879 177.747C226.978 181.54 226.679 185.233 226.08 188.726C225.781 190.522 225.382 192.319 224.783 194.115C224.284 195.712 223.785 197.309 223.086 198.906L227.278 205.294L228.875 207.789L240.652 225.754L176.975 267.474L164.299 248.211Z" fill="#272525"/>
        <path d="M181.966 150C174.98 150 168.592 153.793 164.899 159.981C161.206 153.893 154.819 150 147.832 150C139.348 150 131.763 155.689 128.869 164.173C128.07 166.568 127.671 168.964 127.671 171.459C127.671 173.854 128.07 176.25 128.769 178.545C128.869 178.745 128.968 179.044 129.068 179.244C129.068 179.344 129.168 179.444 129.168 179.543C130.066 181.839 131.164 183.735 132.462 185.432C133.16 186.231 133.859 187.029 134.657 187.728L164.999 219.866L196.339 186.63C198.435 184.434 200.032 181.739 201.03 178.745C201.828 176.449 202.227 173.954 202.227 171.459C202.227 159.682 193.145 150 181.966 150ZM194.442 176.549C193.744 178.545 192.646 180.442 191.149 181.939L164.899 209.685L139.548 182.837L139.348 182.638C138.75 182.138 138.251 181.54 137.851 181.041C136.953 179.943 136.254 178.545 135.656 177.048C135.556 176.749 135.456 176.549 135.256 176.25C134.757 174.753 134.558 173.056 134.558 171.459C134.558 169.762 134.857 168.066 135.456 166.369C137.352 160.68 142.442 156.887 147.932 156.887C153.122 156.887 157.813 160.181 160.009 165.371C160.907 167.367 162.803 168.664 164.999 168.664C167.195 168.664 169.091 167.367 169.989 165.371C172.185 160.281 176.876 156.887 182.066 156.887C189.352 156.887 195.341 163.375 195.341 171.459C195.241 173.256 195.041 174.952 194.442 176.549Z" fill="#272525"/>
    </g>
</svg>