<svg width="295" height="312" viewBox="0 0 295 312" fill="none" xmlns="http://www.w3.org/2000/svg">
    <g filter="url(#filter0_d_225_1791)">
        <rect x="4.31738" y="0.0927734" width="286.287" height="303.289" rx="5" fill="white"/>
    </g>
    <mask id="mask0_225_1791" style="mask-type:alpha" maskUnits="userSpaceOnUse" x="4" y="0" width="287" height="304">
        <rect x="4.31738" y="0.0927734" width="286.287" height="303.289" rx="5" fill="#D9D9D9"/>
    </mask>
    <g mask="url(#mask0_225_1791)">
        <path d="M195.295 74.0617C194.197 73.8621 193 73.7623 191.902 73.7623C183.817 70.4686 169.445 68.173 152.478 81.148L152.078 81.4475L146.489 87.0367C125.629 72.864 109.061 81.6471 104.37 84.6413L83.6103 63.9811L18.0366 129.555L42.8888 154.407C43.0884 165.585 47.0807 176.964 54.7659 188.541C57.9597 193.332 61.6526 197.724 65.6449 201.716C70.7351 206.906 75.9251 211.996 81.1151 217.186C75.5259 225.37 77.9213 232.057 83.7101 238.146C89.7984 244.434 95.2878 245.132 103.572 242.837C103.672 242.837 103.771 242.837 103.771 242.936C109.66 251.72 115.05 256.011 120.938 256.51C123.334 258.906 125.729 261.301 128.224 263.597C135.411 270.583 146.489 272.18 155.173 267.19C158.965 264.994 159.564 263.297 161.56 260.203C176.332 272.579 186.113 272.779 197.79 255.412C197.79 255.313 197.89 255.313 197.99 255.313C206.174 257.708 211.764 256.91 217.852 250.622C224.04 244.234 226.335 237.048 219.449 228.265C219.449 228.165 217.652 225.869 217.752 225.869C222.643 226.069 226.535 222.875 228.731 220.08C234.42 212.695 234.12 204.91 227.932 197.324C230.627 194.63 233.322 191.935 236.017 189.24C240.009 185.148 243.702 180.756 246.896 176.065C254.581 164.488 258.573 153.109 258.773 141.931L283.426 117.079L217.852 51.5051L195.295 74.0617ZM69.6372 192.134C62.0519 184.15 56.4626 175.367 53.9674 165.386C53.4684 163.19 53.0691 160.894 52.7697 158.499C52.5701 156.603 52.5701 154.607 52.5701 152.61L27.3187 127.459L81.5144 73.2632L98.8809 90.6298L100.079 91.8275L99.9788 92.0271L108.363 92.7257L108.862 91.3284C112.155 89.0329 125.929 81.4475 144.293 95.4206L168.547 119.774C169.744 120.971 170.443 122.668 170.443 124.365C170.443 126.062 169.744 127.758 168.547 128.956L166.95 130.553C164.455 133.048 160.263 133.048 157.768 130.553L132.915 105.601L126.927 109.793L133.614 117.678L136.508 120.572C133.614 123.467 130.819 126.261 127.925 129.156C127.226 129.854 126.827 130.653 126.627 131.451C126.528 131.551 126.328 131.751 126.228 131.85C109.56 148.518 92.7926 165.186 76.1247 181.954C72.8311 185.347 70.6353 188.741 69.6372 192.134ZM150.082 259.704C148.186 261.501 146.19 262.599 143.295 262.399C139.303 262.1 136.608 259.105 134.712 257.209C133.514 256.011 132.416 254.913 131.219 253.716C134.013 252.219 136.908 250.222 140.002 247.528C141.898 250.622 142.597 252.318 146.389 254.514C148.086 255.512 149.883 256.211 151.679 256.71C151.28 258.007 150.781 259.105 150.082 259.704ZM185.813 256.411C182.121 260.802 177.829 261.201 172.439 256.111C171.641 255.313 170.743 254.514 169.944 253.716C171.142 252.917 172.24 252.019 173.338 251.021C176.432 248.027 179.526 244.933 182.62 241.938C182.919 242.238 183.318 242.637 183.618 242.936C188.708 248.126 189.407 252.219 185.813 256.411ZM211.764 242.837C207.971 247.927 202.282 248.126 197.092 242.936C194.497 240.341 192.002 237.846 189.407 235.251C193.598 231.159 197.89 227.067 202.082 222.875C204.478 225.27 206.873 227.666 209.169 229.961C213.76 234.652 214.558 238.944 211.764 242.837ZM222.243 212.495C220.347 217.286 214.658 219.482 210.167 217.086C209.767 216.887 209.268 216.587 208.869 216.288C212.961 212.295 216.954 208.203 221.046 204.111C222.742 206.407 223.641 208.902 222.243 212.495ZM274.044 115.083L248.792 140.334C248.892 142.33 248.792 144.326 248.593 146.223C248.393 148.518 247.994 150.814 247.395 153.109C244.9 163.09 239.211 171.973 231.625 179.958C221.345 190.837 210.566 201.117 199.986 211.697C188.908 222.775 177.829 233.954 166.65 244.933C164.754 246.829 161.959 249.823 157.967 250.123C155.073 250.322 153.077 249.224 151.18 247.428C149.483 245.831 148.885 241.639 149.583 239.144C150.282 236.349 152.777 233.854 154.873 231.658C159.963 226.468 165.053 221.378 170.144 216.288C172.639 213.793 175.134 211.297 177.529 208.802C180.124 206.107 187.81 200.418 183.518 196.426C179.625 192.733 173.936 199.82 171.641 202.215C169.146 204.71 166.65 207.205 164.155 209.7C152.378 221.178 140.8 232.756 128.823 243.935C123.334 249.025 119.142 248.626 115.449 244.234C111.956 240.042 112.555 235.95 117.745 230.86C131.019 217.485 144.393 204.211 157.668 190.937C159.564 189.04 161.161 187.843 161.46 184.948C161.66 182.852 160.961 180.956 158.766 180.656C155.073 180.157 153.476 181.555 151.18 183.85C135.51 199.52 119.841 215.19 104.171 230.86C98.9807 235.95 93.2917 235.85 89.499 230.76C86.7044 226.867 87.5028 222.576 92.094 217.985C107.963 202.015 123.933 186.146 139.902 170.276C142.497 167.681 144.593 164.787 141.399 161.793C138.305 158.898 135.71 161.493 133.414 163.789C121.138 176.065 108.962 188.342 96.5853 200.618C94.9884 202.215 93.1919 203.912 91.1957 205.009C86.7044 207.505 81.0153 205.209 79.119 200.418C77.1228 195.528 79.7178 192.434 82.8119 189.34C103.173 169.079 123.533 148.718 143.695 128.357L152.078 136.741C154.873 139.635 158.666 141.033 162.359 141.033C166.052 141.033 169.744 139.635 172.639 136.841L174.236 135.244C177.03 132.549 178.528 128.856 178.528 124.964C178.528 121.271 177.13 117.877 174.735 115.182L156.27 96.5184L152.677 92.8256L157.568 87.8352C165.253 82.0463 172.04 79.9503 177.629 79.6509C187.909 78.7526 196.992 84.1423 196.992 84.1423L202.481 78.6528L219.848 61.2863L274.044 115.083Z" fill="#272525"/>
    </g>
</svg>
