<svg width="29" height="29" viewBox="0 0 29 29" fill="none" xmlns="http://www.w3.org/2000/svg">
<g id="Social Icons" clip-path="url(#clip0_9_178)">
<path id="Vector" d="M27.9424 7.71635C27.7841 7.12067 27.4721 6.57701 27.0377 6.13978C26.6032 5.70256 26.0616 5.3871 25.4669 5.22499C23.2778 4.63635 14.5278 4.63635 14.5278 4.63635C14.5278 4.63635 5.77783 4.63635 3.58874 5.22499C2.99408 5.3871 2.45243 5.70256 2.018 6.13978C1.58357 6.57701 1.27159 7.12067 1.11329 7.71635C0.527832 9.91499 0.527832 14.5 0.527832 14.5C0.527832 14.5 0.527832 19.085 1.11329 21.2836C1.27159 21.8793 1.58357 22.423 2.018 22.8602C2.45243 23.2974 2.99408 23.6129 3.58874 23.775C5.77783 24.3636 14.5278 24.3636 14.5278 24.3636C14.5278 24.3636 23.2778 24.3636 25.4669 23.775C26.0616 23.6129 26.6032 23.2974 27.0377 22.8602C27.4721 22.423 27.7841 21.8793 27.9424 21.2836C28.5278 19.085 28.5278 14.5 28.5278 14.5C28.5278 14.5 28.5278 9.91499 27.9424 7.71635Z" fill="#FF0302"/>
<path id="Vector_2" d="M11.6642 18.6635V10.3367L18.9824 14.5001L11.6642 18.6635Z" fill="#FEFEFE"/>
</g>
<defs>
<clipPath id="clip0_9_178">
<rect width="28" height="28" fill="white" transform="translate(0.5 0.5)"/>
</clipPath>
</defs>
</svg>
